<mxfile host="app.diagrams.net" modified="2023-04-20T16:05:32.729Z" agent="Mozilla/5.0 (Macintosh; Intel Mac OS X 10_15_7) AppleWebKit/537.36 (KHTML, like Gecko) Chrome/112.0.0.0 Safari/537.36" version="21.2.1" etag="S5HjXtTKeuHWBxZjRZ3U" type="github">
  <diagram name="페이지-1" id="ZQHbx2R8D58HEU6S221_">
    <mxGraphModel>
      <root>
        <mxCell id="0" />
        <mxCell id="1" parent="0" />
      </root>
    </mxGraphModel>
  </diagram>
</mxfile>
